<svg width="30" height="30" viewBox="0 0 30 30" fill="none" xmlns="http://www.w3.org/2000/svg">
<path d="M8.08333 25.5H10.1667V21.8333H13.8333V19.75H10.1667V16.0833H8.08333V19.75H4.41667V21.8333H8.08333V25.5ZM17.0417 24.0417H25.4167V22H17.0417V24.0417ZM17.0417 19.5833H25.4167V17.5H17.0417V19.5833ZM18.5833 12.7917L21.125 10.25L23.6667 12.7917L25.1667 11.2917L22.625 8.75L25.1667 6.20833L23.6667 4.70833L21.125 7.25L18.5833 4.70833L17.0833 6.20833L19.625 8.75L17.0833 11.2917L18.5833 12.7917ZM5.04167 9.79167H13.2083V7.70833H5.04167V9.79167ZM2.5 30C1.83333 30 1.25 29.75 0.75 29.25C0.25 28.75 0 28.1667 0 27.5V2.5C0 1.83333 0.25 1.25 0.75 0.75C1.25 0.25 1.83333 0 2.5 0H27.5C28.1667 0 28.75 0.25 29.25 0.75C29.75 1.25 30 1.83333 30 2.5V27.5C30 28.1667 29.75 28.75 29.25 29.25C28.75 29.75 28.1667 30 27.5 30H2.5ZM2.5 27.5H27.5V2.5H2.5V27.5Z" fill="#383838"/>
</svg>
