<svg width="30" height="25" viewBox="0 0 30 25" fill="none" xmlns="http://www.w3.org/2000/svg">
<path d="M2.25 25C1.65 25 1.125 24.7591 0.675 24.2773C0.225 23.7956 0 23.2552 0 22.6562V2.34375C0 1.74479 0.225 1.20443 0.675 0.722656C1.125 0.240886 1.65 0 2.25 0H12.75L15 2.34375H27.75C28.325 2.34375 28.8438 2.58464 29.3063 3.06641C29.7688 3.54818 30 4.08854 30 4.6875V22.6562C30 23.2552 29.7688 23.7956 29.3063 24.2773C28.8438 24.7591 28.325 25 27.75 25H2.25ZM2.25 2.34375V22.6562H27.75V4.6875H14.0625L11.8125 2.34375H2.25ZM2.25 2.34375V22.6562V2.34375Z" fill="#383838"/>
</svg>
