<svg width="95" height="95" viewBox="0 0 95 95" fill="none" xmlns="http://www.w3.org/2000/svg">
<path d="M47.3275 61.7724L61.6299 47.4699L57.5155 43.3555L50.2663 50.6047V32.7756H44.3886V50.6047L37.1394 43.3555L33.025 47.4699L47.3275 61.7724ZM47.3275 86.4589C41.9722 86.4589 36.9108 85.4303 32.1433 83.3731C27.3758 81.3158 23.2124 78.5076 19.6531 74.9483C16.0938 71.389 13.2856 67.2256 11.2284 62.4581C9.17118 57.6906 8.14258 52.6293 8.14258 47.274C8.14258 41.8534 9.17118 36.7594 11.2284 31.9919C13.2856 27.2244 16.0938 23.0773 19.6531 19.5507C23.2124 16.024 27.3758 13.2321 32.1433 11.1749C36.9108 9.11771 41.9722 8.08911 47.3275 8.08911C52.748 8.08911 57.8421 9.11771 62.6096 11.1749C67.377 13.2321 71.5241 16.024 75.0508 19.5507C78.5774 23.0773 81.3693 27.2244 83.4265 31.9919C85.4837 36.7594 86.5123 41.8534 86.5123 47.274C86.5123 52.6293 85.4837 57.6906 83.4265 62.4581C81.3693 67.2256 78.5774 71.389 75.0508 74.9483C71.5241 78.5076 67.377 81.3158 62.6096 83.3731C57.8421 85.4303 52.748 86.4589 47.3275 86.4589ZM47.3275 80.5811C56.6012 80.5811 64.4708 77.3321 70.9363 70.8339C77.4018 64.3357 80.6346 56.4824 80.6346 47.274C80.6346 38.0002 77.4018 30.1306 70.9363 23.6651C64.4708 17.1996 56.6012 13.9668 47.3275 13.9668C38.119 13.9668 30.2657 17.1996 23.7675 23.6651C17.2694 30.1306 14.0203 38.0002 14.0203 47.274C14.0203 56.4824 17.2694 64.3357 23.7675 70.8339C30.2657 77.3321 38.119 80.5811 47.3275 80.5811Z" fill="white"/>
</svg>
