<svg width="82" height="77" viewBox="0 0 82 77" fill="none" xmlns="http://www.w3.org/2000/svg">
<path d="M52.6178 10.0562C52.7237 11.135 52.4941 12.044 51.6117 12.5433C50.9584 12.9176 50.3144 12.6055 49.7141 12.1777C49.2818 11.8749 48.849 11.5715 48.3903 11.3041C44.1971 8.85311 39.9869 6.19615 35.803 3.74515C33.7901 2.56875 33.914 2.62222 35.6706 1.27602C38.0713 -0.578066 39.9517 -0.257295 42.6172 1.24928C45.2297 2.72912 47.181 3.84337 49.5288 5.26975C51.4881 6.2677 52.512 7.4 52.618 10.0562L52.6178 10.0562Z" fill="black"/>
<path d="M71.0759 34.6757C70.2021 35.3087 69.3013 35.558 68.4369 35.032C67.7922 34.6397 67.7393 33.9178 67.8015 33.1865C67.8458 32.6518 67.8895 32.1258 67.8895 31.5911C67.9074 26.6977 68.0927 21.688 68.1192 16.8119C68.1278 14.4677 68.1456 14.6015 70.1757 15.4658C72.9649 16.6515 73.627 18.4522 73.6533 21.5363C73.6884 24.5581 73.7062 26.822 73.6354 29.5852C73.7678 31.8055 73.3091 33.258 71.0759 34.6756L71.0759 34.6757Z" fill="black"/>
<path d="M59.123 63.1034C58.1519 62.6489 57.4901 61.9891 57.5079 60.9731C57.5258 60.2152 58.1169 59.8054 58.7702 59.5026C59.2467 59.28 59.7233 59.0481 60.1826 58.7894C64.393 56.3652 68.7893 54.0383 72.991 51.6314C75.0124 50.4724 74.9065 50.5527 75.1713 52.7544C75.542 55.7849 74.3241 57.256 71.6938 58.8249C69.1163 60.3582 67.1743 61.4992 64.7737 62.8186C62.9277 64.0305 61.4444 64.3513 59.1231 63.1034H59.123Z" fill="black"/>
<path d="M28.7578 66.7851C28.6606 65.7063 28.8988 64.7973 29.7818 64.3074C30.4437 63.9418 31.0791 64.2539 31.6795 64.6817C32.1117 64.9938 32.5446 65.2879 32.9947 65.564C37.1699 68.0417 41.363 70.734 45.5204 73.2212C47.524 74.4156 47.4009 74.3621 45.635 75.6903C43.2163 77.5264 41.3452 77.1969 38.6884 75.6636C36.0844 74.1663 34.1424 73.0427 31.8119 71.5896C29.8613 70.5823 28.846 69.4414 28.7579 66.785L28.7578 66.7851Z" fill="black"/>
<path d="M10.4781 42.022C11.3518 41.3977 12.2526 41.1571 13.1171 41.6831C13.7617 42.0754 13.8054 42.7973 13.7353 43.5286C13.6823 44.0633 13.638 44.5894 13.638 45.124C13.585 50.0174 13.3646 55.0272 13.3024 59.9032C13.2759 62.2474 13.2581 62.1137 11.2367 61.24C8.45602 60.0369 7.81196 58.2268 7.80282 55.1428C7.79419 52.121 7.79419 49.857 7.87362 47.0939C7.76833 44.8834 8.24491 43.4211 10.4781 42.0221L10.4781 42.022Z" fill="black"/>
<path d="M22.65 13.6935C23.621 14.148 24.2744 14.8164 24.2479 15.8417C24.23 16.5996 23.6297 17.0007 22.9678 17.3035C22.4912 17.5261 22.0146 17.7493 21.5553 18.008C17.3271 20.3969 12.9136 22.6968 8.69395 25.0678C6.66388 26.2087 6.77848 26.1285 6.52233 23.9268C6.17814 20.8962 7.40529 19.4251 10.0443 17.883C12.6397 16.3678 14.5816 15.2449 17.0002 13.9428C18.8456 12.7396 20.3369 12.4275 22.6502 13.6935H22.65Z" fill="black"/>
<path d="M61.1012 3.81716C57.5707 3.81716 54.7012 6.714 54.7012 10.28C54.7012 12.7043 56.0343 14.8259 57.9936 15.9314C57.9585 21.6363 57.9406 27.3324 57.9671 33.0365C57.9757 34.5965 57.3403 35.3097 56.0959 36.3077C55.3718 36.8959 54.7893 37.4132 54.3307 37.9119C53.9157 38.3577 53.2888 38.5449 52.6978 38.4018L48.5756 37.4393C49.0965 39.2581 48.6464 41.2452 47.4014 42.6628L52.6979 43.902C52.8919 43.9468 53.0772 43.9468 53.2632 43.9201C53.5101 44.0183 53.8549 43.8846 54.2785 43.644C55.5758 42.8861 59.8306 40.4885 60.6784 39.9624C62.5589 38.8034 63.3969 37.7427 63.3439 35.4787C63.2115 29.1055 63.185 22.7143 63.3704 16.341C65.789 15.4139 67.5013 13.0518 67.5013 10.2973C67.5099 6.71325 64.6326 3.81641 61.1013 3.81641L61.1012 3.81716ZM63.3874 13.8359C62.7341 14.2636 61.9484 14.5223 61.1012 14.5223C59.874 14.5223 58.7798 13.9963 58.0114 13.1494C57.323 12.3915 56.908 11.3841 56.908 10.2879C56.908 7.94372 58.7885 6.0535 61.1012 6.0535C63.4225 6.0535 65.2943 7.95247 65.2943 10.2879C65.303 11.7677 64.5438 13.0784 63.3874 13.8358V13.8359Z" fill="black"/>
<path d="M45.4601 40.997L44.7452 41.7636L44.5777 41.9508L43.6861 42.9046C42.9713 43.68 41.8944 44.0101 40.879 43.7695L39.8372 43.5289L39.6605 43.4841L38.3188 43.172C37.2862 42.9313 36.4648 42.1467 36.165 41.1219L35.8824 40.1594L35.8294 39.9636L35.4323 38.6C35.1496 37.5927 35.3972 36.5052 36.1034 35.7385L36.8183 34.9718L36.9857 34.7934L37.8859 33.8215C38.4419 33.2153 39.2276 32.8857 40.0311 32.8857C40.2515 32.8857 40.4726 32.9038 40.6844 32.9572L41.7169 33.1979L41.9109 33.2426L43.2347 33.5548C44.2673 33.7954 45.0972 34.5801 45.3885 35.6048L45.6711 36.5854L45.7241 36.7812L46.1212 38.1448C46.4217 39.1427 46.1662 40.2395 45.4599 40.9969L45.4601 40.997Z" fill="black"/>
<path d="M75.1364 36.1115C71.7026 36.1115 68.8869 38.8567 68.7365 42.2976C63.8113 45.1142 58.8942 47.9402 53.9953 50.8103C52.6622 51.595 51.7356 51.3898 50.2614 50.7923C49.3348 50.418 48.5576 50.1593 47.8693 50.0076C47.2425 49.8739 46.748 49.4101 46.5719 48.7951L45.407 44.7933C44.3744 45.8453 42.9706 46.4155 41.5316 46.4155C41.1258 46.4155 40.7016 46.3707 40.3044 46.2731L41.8401 51.5682C41.9374 51.8978 42.1492 52.1657 42.4139 52.3349C42.5377 52.5133 42.7667 52.6737 43.0672 52.8516C44.3645 53.6182 48.5398 56.1408 49.4142 56.6221C51.3476 57.6916 52.6714 57.8968 54.5955 56.7291C59.9271 53.4754 65.3296 50.3197 70.82 47.3426C71.9585 48.3947 73.4768 49.0364 75.1363 49.0364C78.6668 49.0364 81.5362 46.1396 81.5362 42.5736C81.5362 39.0083 78.6676 36.1113 75.1363 36.1113L75.1364 36.1115ZM75.1364 46.8168C74.3243 46.8168 73.5651 46.5848 72.921 46.1751C71.7296 45.4265 70.9346 44.0983 70.9346 42.5737C70.9346 41.9495 71.067 41.3526 71.3139 40.8179C71.9758 39.3561 73.4412 38.3307 75.1357 38.3307C77.4571 38.3307 79.3289 40.2297 79.3289 42.5651C79.3381 44.9186 77.4583 46.8169 75.1363 46.8169L75.1364 46.8168Z" fill="black"/>
<path d="M54.7365 63.8785C53.5093 63.8785 52.3623 64.2261 51.382 64.841C46.527 61.9348 41.6547 59.0473 36.7647 56.1946C35.4316 55.4192 35.1496 54.5008 34.92 52.9054C34.779 51.9248 34.6109 51.1227 34.4083 50.4544C34.223 49.8481 34.364 49.1884 34.7876 48.7252L37.6477 45.65C35.8202 45.1867 34.3462 43.8045 33.7723 41.9951L30.065 45.9976C29.8531 46.2202 29.7294 46.4969 29.7121 46.7823V46.791C29.6149 46.9869 29.5884 47.2722 29.5884 47.6198C29.5798 49.1351 29.4825 54.0559 29.5089 55.0632C29.5619 57.2917 30.0385 58.5576 31.9983 59.6538C37.5417 62.774 43.0409 65.983 48.4246 69.3792C48.3802 69.7 48.3538 70.0209 48.3538 70.351C48.3538 73.9163 51.2317 76.8139 54.7537 76.8139C58.2842 76.8139 61.1537 73.9171 61.1537 70.351C61.153 66.7845 58.2666 63.8789 54.7359 63.8789L54.7365 63.8785ZM54.7365 74.575C52.521 74.575 50.7022 72.8364 50.5526 70.6347C50.544 70.5365 50.544 70.4389 50.544 70.3406C50.544 68.3528 51.8943 66.6858 53.7217 66.2313C54.048 66.1511 54.3836 66.1063 54.737 66.1063C57.0584 66.1063 58.9302 68.0053 58.9302 70.3407C58.9382 72.6854 57.0578 74.5751 54.7366 74.5751L54.7365 74.575Z" fill="black"/>
<path d="M34.1692 34.0617L28.8642 32.8138C28.5378 32.7423 28.2109 32.7871 27.9375 32.9295C27.77 32.9742 27.5668 33.0719 27.3458 33.1968C26.0392 33.9455 21.7672 36.3076 20.9108 36.8337C19.0304 37.9834 18.1831 39.0354 18.2096 41.2994C18.2977 47.8063 18.2712 54.3225 18.0243 60.8303C15.8353 61.8556 14.3169 64.1015 14.3169 66.6956C14.3169 70.2608 17.1855 73.1585 20.7168 73.1585C24.2474 73.1585 27.1168 70.2616 27.1168 66.6956C27.1168 64.1015 25.5898 61.8557 23.4009 60.8303C23.4803 55.1434 23.5419 49.456 23.5511 43.7698C23.5598 42.2097 24.2044 41.5058 25.4488 40.5161C26.2166 39.9098 26.8348 39.3664 27.3028 38.8404C27.7178 38.3946 28.3446 38.2074 28.9357 38.3411L32.952 39.2769C32.4656 37.4594 32.9156 35.4717 34.1693 34.0633L34.1692 34.0617ZM24.9271 66.6864C24.9271 69.0306 23.0467 70.9208 20.734 70.9208C18.4126 70.9208 16.5408 69.0219 16.5408 66.6864C16.5408 65.367 17.1411 64.182 18.0764 63.406C18.8005 62.8085 19.7272 62.4435 20.7332 62.4435C21.7392 62.4435 22.6666 62.7997 23.39 63.3973C24.3265 64.182 24.9268 65.3677 24.9268 66.6865L24.9271 66.6864Z" fill="black"/>
<path d="M39.713 25.1574C39.5984 24.7563 39.3072 24.4442 38.9624 24.2838H38.9538C38.8565 24.2123 38.7506 24.1414 38.6274 24.0699C37.3387 23.2945 33.1813 20.7359 32.3069 20.246C30.3735 19.1672 29.0584 18.9446 27.1256 20.1036C21.4676 23.491 15.7297 26.7802 9.89547 29.8557C8.88937 29.1873 7.6887 28.8036 6.39994 28.8036C2.86943 28.8036 0 31.7005 0 35.2665C0 38.8317 2.86864 41.7294 6.39994 41.7294C9.93046 41.7294 12.7999 38.8325 12.7999 35.2665C12.7999 34.9991 12.782 34.7405 12.7556 34.4818C17.743 31.6825 22.7125 28.8751 27.6735 26.0224C29.0151 25.247 29.9419 25.4609 31.4073 26.0672C32.3254 26.4415 33.0931 26.7001 33.773 26.8606C34.3819 27.0029 34.8499 27.4668 35.0266 28.0637L36.1386 31.9231C37.4716 30.5769 39.3958 30.0155 41.2405 30.4345L39.713 25.1574ZM6.40809 39.5087C4.08673 39.5087 2.21492 37.6097 2.21492 35.2743C2.21492 32.9389 4.0954 31.0399 6.40809 31.0399C6.87605 31.0399 7.33476 31.1201 7.75838 31.2625C9.41771 31.8333 10.6098 33.4107 10.6098 35.2736C10.6098 35.4253 10.6012 35.5677 10.5834 35.7194C10.3629 37.8503 8.57111 39.5086 6.40816 39.5086L6.40809 39.5087Z" fill="black"/>
<path d="M51.9748 21.7953C51.9132 19.5668 51.4188 18.3102 49.4502 17.2227C43.6771 14.0404 37.9399 10.7424 32.343 7.24806C32.3516 7.14111 32.3516 7.03416 32.3516 6.92722C32.3516 3.362 29.4737 0.464355 25.9517 0.464355C22.4212 0.464355 19.5518 3.3612 19.5518 6.92722C19.5518 10.4924 22.4204 13.3901 25.9517 13.3901C27.4079 13.3901 28.7502 12.9001 29.8178 12.0707C34.7608 14.9769 39.7131 17.8737 44.6913 20.7259C46.0329 21.4925 46.3241 22.4109 46.5718 23.9971C46.722 24.9596 46.8808 25.7356 47.0834 26.404C47.2688 27.0015 47.1185 27.6432 46.6863 28.0978L43.9236 31.0748C45.7511 31.5381 47.2251 32.9289 47.7897 34.7384L51.5056 30.736C51.7087 30.5134 51.8233 30.2634 51.8584 29.9873V29.9786C51.9199 29.7828 51.9464 29.5328 51.9464 29.2387C51.9384 27.7234 52.0006 22.8026 51.9741 21.7953L51.9748 21.7953ZM27.6467 10.7959C27.1258 11.0279 26.5519 11.1615 25.9429 11.1615C23.6216 11.1615 21.7498 9.26257 21.7498 6.92714C21.7498 4.58296 23.6302 2.69274 25.9429 2.69274C27.9823 2.69274 29.6853 4.16326 30.0567 6.10691C30.1096 6.37427 30.1361 6.65035 30.1361 6.92703C30.1355 8.64756 29.1115 10.136 27.6467 10.7958L27.6467 10.7959Z" fill="black"/>
</svg>
