<svg width="173" height="107" viewBox="0 0 173 107" fill="none" xmlns="http://www.w3.org/2000/svg">
<path d="M43.4173 100.993C41.609 100.993 40.2882 100.576 39.4548 99.7432C38.6215 98.9098 38.2048 97.589 38.2048 95.7807V90.0932C38.2048 88.2682 38.6173 86.9432 39.4423 86.1182C40.2757 85.2932 41.5923 84.8807 43.3923 84.8807H46.4173C47.9507 84.8807 49.0923 85.2015 49.8423 85.8432C50.5923 86.4765 51.0048 87.4973 51.0798 88.9057C51.1048 89.1307 51.059 89.3015 50.9423 89.4182C50.834 89.5348 50.6715 89.5932 50.4548 89.5932C50.0382 89.5932 49.809 89.3723 49.7673 88.9307C49.709 87.8973 49.4257 87.1848 48.9173 86.7932C48.409 86.3932 47.5757 86.1932 46.4173 86.1932H43.3923C42.434 86.1932 41.6715 86.3182 41.1048 86.5682C40.5382 86.8098 40.1298 87.2182 39.8798 87.7932C39.6382 88.3598 39.5173 89.1265 39.5173 90.0932V95.7807C39.5173 96.7473 39.6423 97.514 39.8923 98.0807C40.1423 98.6473 40.5507 99.0557 41.1173 99.3057C41.684 99.5557 42.4507 99.6807 43.4173 99.6807H46.4173C47.5757 99.6807 48.409 99.4848 48.9173 99.0932C49.4257 98.6932 49.709 97.9765 49.7673 96.9432C49.809 96.5015 50.0382 96.2807 50.4548 96.2807C50.6715 96.2807 50.834 96.3432 50.9423 96.4682C51.059 96.5848 51.1048 96.7515 51.0798 96.9682C51.0048 98.3765 50.5923 99.4015 49.8423 100.043C49.0923 100.676 47.9507 100.993 46.4173 100.993H43.4173ZM66.0683 101.018C65.885 101.126 65.7183 101.164 65.5683 101.131C65.4183 101.097 65.285 100.993 65.1683 100.818L61.0683 94.2932H56.4808V100.331C56.4808 100.772 56.2641 100.993 55.8308 100.993C55.3891 100.993 55.1683 100.772 55.1683 100.331V85.5432C55.1683 85.1015 55.3891 84.8807 55.8308 84.8807H61.6808C63.1058 84.8807 64.1808 85.2473 64.9058 85.9807C65.6391 86.714 66.0058 87.7932 66.0058 89.2182V89.9682C66.0058 91.2265 65.7183 92.214 65.1433 92.9307C64.5683 93.6473 63.7183 94.0848 62.5933 94.2432L66.2808 100.118C66.5141 100.501 66.4433 100.801 66.0683 101.018ZM56.4808 92.9807H61.6808C62.7308 92.9807 63.4933 92.7432 63.9683 92.2682C64.4516 91.7848 64.6933 91.0182 64.6933 89.9682V89.2182C64.6933 88.1598 64.4516 87.3932 63.9683 86.9182C63.4933 86.4348 62.7308 86.1932 61.6808 86.1932H56.4808V92.9807ZM74.8626 100.993C73.0543 100.993 71.7335 100.576 70.9001 99.7432C70.0668 98.9098 69.6501 97.589 69.6501 95.7807V90.0807C69.6501 88.2557 70.0668 86.9307 70.9001 86.1057C71.7335 85.2723 73.046 84.864 74.8376 84.8807H77.8626C79.671 84.8807 80.9876 85.2973 81.8126 86.1307C82.646 86.964 83.0626 88.2848 83.0626 90.0932V95.7807C83.0626 97.589 82.646 98.9098 81.8126 99.7432C80.9876 100.576 79.671 100.993 77.8626 100.993H74.8626ZM74.8626 99.6807H77.8626C78.821 99.6807 79.5835 99.5557 80.1501 99.3057C80.7168 99.0557 81.1251 98.6473 81.3751 98.0807C81.6251 97.514 81.7501 96.7473 81.7501 95.7807V90.0932C81.7501 89.1348 81.6251 88.3723 81.3751 87.8057C81.1251 87.239 80.7168 86.8307 80.1501 86.5807C79.5835 86.3223 78.821 86.1932 77.8626 86.1932H74.8376C73.8793 86.1848 73.1168 86.3057 72.5501 86.5557C71.9918 86.7973 71.5876 87.2057 71.3376 87.7807C71.0876 88.3473 70.9626 89.114 70.9626 90.0807V95.7807C70.9626 96.7473 71.0876 97.514 71.3376 98.0807C71.5876 98.6473 71.996 99.0557 72.5626 99.3057C73.1293 99.5557 73.896 99.6807 74.8626 99.6807ZM88.0574 100.993C87.6157 100.993 87.3949 100.772 87.3949 100.331V85.5432C87.3949 85.1015 87.6157 84.8807 88.0574 84.8807C88.2907 84.8807 88.5157 85.0098 88.7324 85.2682L99.3199 98.8682H99.0199V85.5432C99.0199 85.1015 99.2407 84.8807 99.6824 84.8807C100.116 84.8807 100.332 85.1015 100.332 85.5432V100.331C100.332 100.772 100.116 100.993 99.6824 100.993C99.4407 100.993 99.2157 100.864 99.0074 100.606L88.4074 87.0057H88.7074V100.331C88.7074 100.772 88.4907 100.993 88.0574 100.993ZM109.872 100.993C108.064 100.993 106.743 100.576 105.91 99.7432C105.077 98.9098 104.66 97.589 104.66 95.7807V90.0807C104.66 88.2557 105.077 86.9307 105.91 86.1057C106.743 85.2723 108.056 84.864 109.847 84.8807H112.872C114.681 84.8807 115.997 85.2973 116.822 86.1307C117.656 86.964 118.072 88.2848 118.072 90.0932V95.7807C118.072 97.589 117.656 98.9098 116.822 99.7432C115.997 100.576 114.681 100.993 112.872 100.993H109.872ZM109.872 99.6807H112.872C113.831 99.6807 114.593 99.5557 115.16 99.3057C115.727 99.0557 116.135 98.6473 116.385 98.0807C116.635 97.514 116.76 96.7473 116.76 95.7807V90.0932C116.76 89.1348 116.635 88.3723 116.385 87.8057C116.135 87.239 115.727 86.8307 115.16 86.5807C114.593 86.3223 113.831 86.1932 112.872 86.1932H109.847C108.889 86.1848 108.127 86.3057 107.56 86.5557C107.002 86.7973 106.597 87.2057 106.347 87.7807C106.097 88.3473 105.972 89.114 105.972 90.0807V95.7807C105.972 96.7473 106.097 97.514 106.347 98.0807C106.597 98.6473 107.006 99.0557 107.572 99.3057C108.139 99.5557 108.906 99.6807 109.872 99.6807ZM126.542 100.968C125.05 100.968 123.942 100.639 123.217 99.9807C122.5 99.314 122.117 98.2682 122.067 96.8432C122.059 96.6432 122.113 96.4848 122.23 96.3682C122.355 96.2432 122.517 96.1807 122.717 96.1807C122.917 96.1807 123.075 96.239 123.192 96.3557C123.309 96.4723 123.375 96.6307 123.392 96.8307C123.425 97.8807 123.675 98.614 124.142 99.0307C124.609 99.4473 125.409 99.6557 126.542 99.6557H130.142C131.325 99.6557 132.146 99.4265 132.605 98.9682C133.071 98.5015 133.305 97.6848 133.305 96.5182C133.305 95.3348 133.071 94.514 132.605 94.0557C132.146 93.589 131.325 93.3557 130.142 93.3557H126.717C125.25 93.3557 124.175 93.014 123.492 92.3307C122.809 91.6473 122.467 90.5765 122.467 89.1182C122.467 87.6598 122.805 86.589 123.48 85.9057C124.163 85.2223 125.234 84.8807 126.692 84.8807H130.192C131.592 84.8807 132.63 85.1932 133.305 85.8182C133.988 86.4432 134.355 87.4265 134.405 88.7682C134.421 88.9682 134.367 89.1307 134.242 89.2557C134.125 89.3723 133.963 89.4307 133.755 89.4307C133.563 89.4307 133.409 89.3723 133.292 89.2557C133.175 89.139 133.109 88.9807 133.092 88.7807C133.059 87.8223 132.825 87.1515 132.392 86.7682C131.959 86.3848 131.225 86.1932 130.192 86.1932H126.692C125.6 86.1932 124.842 86.4098 124.417 86.8432C123.992 87.2682 123.78 88.0265 123.78 89.1182C123.78 90.2098 123.992 90.9723 124.417 91.4057C124.85 91.8307 125.617 92.0432 126.717 92.0432H130.142C131.692 92.0432 132.825 92.4057 133.542 93.1307C134.259 93.8473 134.617 94.9765 134.617 96.5182C134.617 98.0598 134.259 99.189 133.542 99.9057C132.825 100.614 131.692 100.968 130.142 100.968H126.542Z" fill="#F66813"/>
<path d="M97.6178 10.0562C97.7237 11.135 97.4941 12.044 96.6117 12.5433C95.9584 12.9176 95.3144 12.6055 94.7141 12.1777C94.2818 11.8749 93.849 11.5715 93.3903 11.3041C89.1971 8.85311 84.9869 6.19615 80.803 3.74515C78.7901 2.56875 78.914 2.62222 80.6706 1.27602C83.0713 -0.578066 84.9517 -0.257295 87.6172 1.24928C90.2297 2.72912 92.181 3.84337 94.5288 5.26975C96.4881 6.2677 97.512 7.4 97.618 10.0562L97.6178 10.0562Z" fill="#F66813"/>
<path d="M116.076 34.6757C115.202 35.3087 114.301 35.558 113.437 35.032C112.792 34.6397 112.739 33.9178 112.801 33.1865C112.846 32.6518 112.89 32.1258 112.89 31.5911C112.907 26.6977 113.093 21.688 113.119 16.8119C113.128 14.4677 113.146 14.6015 115.176 15.4658C117.965 16.6515 118.627 18.4522 118.653 21.5363C118.688 24.5581 118.706 26.822 118.635 29.5852C118.768 31.8055 118.309 33.258 116.076 34.6756L116.076 34.6757Z" fill="#F66813"/>
<path d="M104.123 63.1034C103.152 62.6489 102.49 61.9891 102.508 60.9731C102.526 60.2152 103.117 59.8054 103.77 59.5026C104.247 59.28 104.723 59.0481 105.183 58.7894C109.393 56.3652 113.789 54.0383 117.991 51.6314C120.013 50.4724 119.907 50.5527 120.171 52.7544C120.542 55.7849 119.324 57.256 116.694 58.8249C114.116 60.3582 112.174 61.4992 109.774 62.8186C107.928 64.0304 106.445 64.3513 104.123 63.1034H104.123Z" fill="#F66813"/>
<path d="M73.758 66.7851C73.6607 65.7063 73.899 64.7973 74.7819 64.3074C75.4438 63.9418 76.0793 64.2539 76.6796 64.6817C77.1118 64.9938 77.5447 65.2879 77.9948 65.564C82.17 68.0417 86.3632 70.734 90.5206 73.2212C92.5242 74.4156 92.401 74.3621 90.6351 75.6903C88.2165 77.5264 86.3453 77.1969 83.6885 75.6636C81.0845 74.1663 79.1426 73.0427 76.812 71.5896C74.8614 70.5823 73.8462 69.4414 73.758 66.785L73.758 66.7851Z" fill="#F66813"/>
<path d="M55.478 42.022C56.3517 41.3977 57.2525 41.1571 58.1169 41.6831C58.7616 42.0754 58.8053 42.7973 58.7351 43.5286C58.6822 44.0633 58.6378 44.5894 58.6378 45.124C58.5849 50.0174 58.3645 55.0272 58.3023 59.9032C58.2758 62.2474 58.2579 62.1137 56.2366 61.24C53.4559 60.0369 52.8118 58.2268 52.8027 55.1428C52.7941 52.121 52.7941 49.857 52.8735 47.0939C52.7682 44.8834 53.2448 43.4211 55.478 42.0221L55.478 42.022Z" fill="#F66813"/>
<path d="M67.6499 13.6935C68.6209 14.148 69.2742 14.8164 69.2478 15.8417C69.2299 16.5996 68.6296 17.0007 67.9677 17.3035C67.4911 17.5261 67.0145 17.7493 66.5552 18.008C62.327 20.3969 57.9135 22.6968 53.6938 25.0678C51.6638 26.2087 51.7784 26.1285 51.5222 23.9268C51.178 20.8962 52.4052 19.4251 55.0442 17.883C57.6395 16.3678 59.5815 15.2449 62.0001 13.9428C63.8454 12.7396 65.3367 12.4275 67.6501 13.6935H67.6499Z" fill="#F66813"/>
<path d="M106.101 3.81716C102.571 3.81716 99.7014 6.714 99.7014 10.28C99.7014 12.7043 101.034 14.8259 102.994 15.9314C102.959 21.6363 102.941 27.3324 102.967 33.0365C102.976 34.5965 102.34 35.3097 101.096 36.3077C100.372 36.8959 99.7895 37.4132 99.3308 37.9119C98.9158 38.3577 98.289 38.5448 97.6979 38.4018L93.5757 37.4393C94.0966 39.2581 93.6465 41.2452 92.4015 42.6628L97.6981 43.902C97.892 43.9468 98.0773 43.9468 98.2633 43.9201C98.5102 44.0183 98.855 43.8846 99.2786 43.644C100.576 42.8861 104.831 40.4885 105.679 39.9624C107.559 38.8034 108.397 37.7427 108.344 35.4787C108.212 29.1055 108.185 22.7143 108.37 16.341C110.789 15.4139 112.501 13.0518 112.501 10.2973C112.51 6.71325 109.633 3.81641 106.101 3.81641L106.101 3.81716ZM108.388 13.8359C107.734 14.2636 106.949 14.5223 106.101 14.5223C104.874 14.5223 103.78 13.9963 103.012 13.1494C102.323 12.3915 101.908 11.3841 101.908 10.2879C101.908 7.94372 103.789 6.0535 106.101 6.0535C108.423 6.0535 110.294 7.95247 110.294 10.2879C110.303 11.7677 109.544 13.0784 108.388 13.8358V13.8359Z" fill="#F66813"/>
<path d="M90.4601 40.997L89.7452 41.7636L89.5777 41.9508L88.6861 42.9046C87.9713 43.68 86.8944 44.0101 85.879 43.7695L84.8372 43.5289L84.6605 43.4841L83.3188 43.172C82.2862 42.9313 81.4648 42.1467 81.165 41.1219L80.8824 40.1594L80.8294 39.9636L80.4323 38.6C80.1496 37.5927 80.3972 36.5052 81.1034 35.7385L81.8183 34.9718L81.9857 34.7934L82.8859 33.8215C83.4419 33.2153 84.2276 32.8857 85.0311 32.8857C85.2515 32.8857 85.4726 32.9038 85.6844 32.9572L86.7169 33.1979L86.9109 33.2426L88.2347 33.5548C89.2673 33.7954 90.0972 34.5801 90.3885 35.6048L90.6711 36.5854L90.7241 36.7812L91.1212 38.1448C91.4217 39.1427 91.1662 40.2395 90.4599 40.9969L90.4601 40.997Z" fill="#F66813"/>
<path d="M120.136 36.1115C116.702 36.1115 113.887 38.8567 113.736 42.2976C108.811 45.1142 103.894 47.9402 98.9952 50.8103C97.6621 51.595 96.7354 51.3898 95.2613 50.7923C94.3346 50.418 93.5575 50.1593 92.8692 50.0076C92.2424 49.8739 91.7479 49.4101 91.5718 48.7951L90.4069 44.7933C89.3743 45.8453 87.9704 46.4155 86.5315 46.4155C86.1257 46.4155 85.7015 46.3707 85.3043 46.2731L86.8399 51.5682C86.9372 51.8978 87.149 52.1657 87.4138 52.3349C87.5376 52.5133 87.7666 52.6737 88.0671 52.8516C89.3644 53.6182 93.5397 56.1408 94.4141 56.6221C96.3475 57.6916 97.6713 57.8968 99.5954 56.7291C104.927 53.4754 110.329 50.3197 115.82 47.3426C116.958 48.3947 118.477 49.0364 120.136 49.0364C123.667 49.0364 126.536 46.1396 126.536 42.5736C126.536 39.0083 123.667 36.1113 120.136 36.1113L120.136 36.1115ZM120.136 46.8168C119.324 46.8168 118.565 46.5848 117.921 46.1751C116.729 45.4265 115.934 44.0983 115.934 42.5737C115.934 41.9495 116.067 41.3526 116.314 40.8179C116.976 39.3561 118.441 38.3307 120.136 38.3307C122.457 38.3307 124.329 40.2297 124.329 42.5651C124.338 44.9186 122.458 46.8169 120.136 46.8169L120.136 46.8168Z" fill="#F66813"/>
<path d="M99.7363 63.8785C98.5092 63.8785 97.3622 64.2261 96.3819 64.841C91.5268 61.9348 86.6546 59.0473 81.7646 56.1946C80.4315 55.4192 80.1495 54.5008 79.9199 52.9054C79.7789 51.9248 79.6108 51.1227 79.4082 50.4544C79.2229 49.8481 79.3639 49.1884 79.7875 48.7252L82.6476 45.65C80.8201 45.1867 79.3461 43.8045 78.7722 41.9951L75.0648 45.9976C74.853 46.2202 74.7293 46.4969 74.712 46.7823V46.791C74.6147 46.9869 74.5883 47.2722 74.5883 47.6198C74.5796 49.1351 74.4823 54.0559 74.5088 55.0632C74.5618 57.2917 75.0384 58.5576 76.9982 59.6539C82.5416 62.774 88.0407 65.983 93.4245 69.3792C93.3801 69.7 93.3536 70.0209 93.3536 70.351C93.3536 73.9163 96.2316 76.8139 99.7536 76.8139C103.284 76.8139 106.154 73.9171 106.154 70.351C106.153 66.7845 103.266 63.8789 99.7358 63.8789L99.7363 63.8785ZM99.7363 74.575C97.5209 74.575 95.702 72.8364 95.5525 70.6347C95.5438 70.5365 95.5438 70.4389 95.5438 70.3406C95.5438 68.3528 96.8941 66.6858 98.7216 66.2313C99.0479 66.1511 99.3835 66.1063 99.7369 66.1063C102.058 66.1063 103.93 68.0053 103.93 70.3407C103.938 72.6854 102.058 74.5751 99.7364 74.5751L99.7363 74.575Z" fill="#F66813"/>
<path d="M79.1692 34.0617L73.8642 32.8138C73.5378 32.7423 73.2109 32.7871 72.9375 32.9295C72.77 32.9742 72.5668 33.0719 72.3458 33.1968C71.0392 33.9455 66.7672 36.3076 65.9108 36.8337C64.0304 37.9834 63.1831 39.0354 63.2096 41.2994C63.2977 47.8063 63.2712 54.3225 63.0243 60.8303C60.8353 61.8556 59.3169 64.1015 59.3169 66.6956C59.3169 70.2608 62.1855 73.1585 65.7168 73.1585C69.2474 73.1585 72.1168 70.2616 72.1168 66.6956C72.1168 64.1015 70.5898 61.8557 68.4009 60.8303C68.4803 55.1434 68.5419 49.456 68.5511 43.7698C68.5598 42.2097 69.2044 41.5058 70.4488 40.5161C71.2166 39.9098 71.8348 39.3664 72.3028 38.8404C72.7178 38.3946 73.3446 38.2074 73.9357 38.3411L77.952 39.2769C77.4656 37.4594 77.9156 35.4717 79.1693 34.0633L79.1692 34.0617ZM69.9271 66.6864C69.9271 69.0306 68.0467 70.9208 65.734 70.9208C63.4126 70.9208 61.5408 69.0219 61.5408 66.6864C61.5408 65.367 62.1411 64.182 63.0764 63.406C63.8005 62.8085 64.7272 62.4435 65.7332 62.4435C66.7392 62.4435 67.6666 62.7997 68.39 63.3973C69.3265 64.182 69.9269 65.3677 69.9269 66.6865L69.9271 66.6864Z" fill="#F66813"/>
<path d="M84.713 25.1574C84.5984 24.7563 84.3072 24.4442 83.9624 24.2838H83.9538C83.8565 24.2123 83.7506 24.1414 83.6274 24.0699C82.3387 23.2945 78.1813 20.7359 77.3069 20.246C75.3735 19.1672 74.0584 18.9446 72.1256 20.1036C66.4676 23.491 60.7297 26.7802 54.8955 29.8557C53.8894 29.1873 52.6887 28.8036 51.3999 28.8036C47.8694 28.8036 45 31.7005 45 35.2665C45 38.8317 47.8686 41.7294 51.3999 41.7294C54.9305 41.7294 57.7999 38.8325 57.7999 35.2665C57.7999 34.9991 57.782 34.7405 57.7556 34.4818C62.743 31.6825 67.7125 28.8751 72.6735 26.0224C74.0151 25.247 74.9419 25.4609 76.4073 26.0672C77.3254 26.4415 78.0931 26.7001 78.773 26.8606C79.3819 27.0029 79.8499 27.4668 80.0266 28.0637L81.1386 31.9231C82.4716 30.5769 84.3958 30.0155 86.2405 30.4345L84.713 25.1574ZM51.4081 39.5087C49.0867 39.5087 47.2149 37.6097 47.2149 35.2743C47.2149 32.9389 49.0954 31.0399 51.4081 31.0399C51.8761 31.0399 52.3348 31.1201 52.7584 31.2625C54.4177 31.8333 55.6098 33.4107 55.6098 35.2736C55.6098 35.4253 55.6012 35.5677 55.5834 35.7194C55.3629 37.8503 53.5711 39.5086 51.4082 39.5086L51.4081 39.5087Z" fill="#F66813"/>
<path d="M96.9748 21.7953C96.9132 19.5669 96.4188 18.3102 94.4502 17.2227C88.6771 14.0404 82.9399 10.7424 77.343 7.24806C77.3516 7.14111 77.3516 7.03416 77.3516 6.92722C77.3516 3.362 74.4737 0.464355 70.9517 0.464355C67.4212 0.464355 64.5518 3.3612 64.5518 6.92722C64.5518 10.4924 67.4204 13.3901 70.9517 13.3901C72.4079 13.3901 73.7502 12.9001 74.8178 12.0707C79.7608 14.9769 84.7131 17.8737 89.6913 20.7259C91.0329 21.4925 91.3241 22.4109 91.5718 23.9971C91.722 24.9596 91.8808 25.7356 92.0834 26.404C92.2688 27.0015 92.1185 27.6432 91.6863 28.0978L88.9236 31.0748C90.7511 31.5381 92.225 32.9289 92.7897 34.7384L96.5056 30.736C96.7087 30.5134 96.8233 30.2634 96.8584 29.9873V29.9786C96.9199 29.7828 96.9464 29.5328 96.9464 29.2387C96.9384 27.7234 97.0006 22.8026 96.9741 21.7953L96.9748 21.7953ZM72.6467 10.7959C72.1258 11.0279 71.5519 11.1615 70.9429 11.1615C68.6216 11.1615 66.7498 9.26257 66.7498 6.92714C66.7498 4.58296 68.6302 2.69274 70.9429 2.69274C72.9823 2.69274 74.6853 4.16326 75.0567 6.10691C75.1096 6.37427 75.1361 6.65035 75.1361 6.92703C75.1355 8.64756 74.1115 10.136 72.6467 10.7958L72.6467 10.7959Z" fill="#F66813"/>
</svg>
