<svg width="53" height="41" viewBox="0 0 53 41" fill="none" xmlns="http://www.w3.org/2000/svg">
<g clip-path="url(#clip0_127_1286)">
<rect width="52.3411" height="40.5078" fill="#F4F4F4"/>
<path d="M34.469 4.79583C34.5342 5.30993 34.3928 5.74313 33.8495 5.9811C33.4472 6.15948 33.0506 6.01073 32.6809 5.80686C32.4148 5.66256 32.1482 5.51795 31.8658 5.39053C29.2837 4.22248 26.6912 2.95627 24.1148 1.78822C22.8753 1.22759 22.9516 1.25307 24.0333 0.611519C25.5116 -0.272067 26.6695 -0.119199 28.3109 0.598778C29.9196 1.30402 31.1211 1.83502 32.5669 2.51478C33.7734 2.99037 34.4039 3.52998 34.4691 4.79581L34.469 4.79583Z" fill="black"/>
<path d="M45.8351 16.5287C45.2971 16.8304 44.7424 16.9492 44.2101 16.6985C43.8131 16.5115 43.7805 16.1675 43.8188 15.819C43.8461 15.5642 43.873 15.3135 43.873 15.0587C43.884 12.7267 43.9981 10.3392 44.0144 8.01549C44.0197 6.89834 44.0307 6.96206 45.2808 7.37396C46.9983 7.93904 47.406 8.7972 47.4222 10.2669C47.4438 11.707 47.4548 12.7859 47.4112 14.1027C47.4927 15.1609 47.2103 15.8531 45.8351 16.5287L45.8351 16.5287Z" fill="black"/>
<path d="M38.4749 30.076C37.877 29.8594 37.4695 29.545 37.4804 29.0608C37.4914 28.6996 37.8554 28.5043 38.2577 28.36C38.5512 28.254 38.8446 28.1434 39.1275 28.0202C41.7201 26.8648 44.4273 25.756 47.0146 24.6089C48.2593 24.0566 48.1941 24.0948 48.3572 25.1441C48.5854 26.5883 47.8355 27.2894 46.2158 28.037C44.6286 28.7678 43.4328 29.3115 41.9545 29.9403C40.8178 30.5178 39.9045 30.6707 38.475 30.076H38.4749Z" fill="black"/>
<path d="M19.7767 31.8305C19.7168 31.3163 19.8635 30.8831 20.4072 30.6497C20.8148 30.4754 21.2061 30.6242 21.5757 30.828C21.8419 30.9768 22.1084 31.117 22.3856 31.2485C24.9566 32.4293 27.5387 33.7124 30.0987 34.8976C31.3325 35.4669 31.2567 35.4414 30.1692 36.0743C28.6799 36.9493 27.5277 36.7923 25.8917 36.0616C24.2882 35.3481 23.0924 34.8126 21.6573 34.1201C20.4561 33.6401 19.831 33.0963 19.7767 31.8304L19.7767 31.8305Z" fill="black"/>
<path d="M8.52028 20.0295C9.0583 19.732 9.61301 19.6173 10.1453 19.868C10.5423 20.055 10.5692 20.399 10.526 20.7475C10.4934 21.0023 10.4661 21.253 10.4661 21.5078C10.4335 23.8398 10.2977 26.2273 10.2594 28.551C10.2431 29.6682 10.2321 29.6044 8.98742 29.1881C7.27514 28.6147 6.87854 27.7521 6.87291 26.2824C6.8676 24.8423 6.8676 23.7634 6.91651 22.4466C6.85168 21.3931 7.14514 20.6962 8.52028 20.0295L8.52028 20.0295Z" fill="black"/>
<path d="M16.0156 6.52909C16.6135 6.7457 17.0158 7.06424 16.9995 7.55286C16.9885 7.91407 16.6188 8.10519 16.2113 8.2495C15.9178 8.35558 15.6243 8.46196 15.3415 8.58523C12.7379 9.7237 10.0201 10.8198 7.42174 11.9497C6.17167 12.4934 6.24224 12.4552 6.08451 11.4059C5.87256 9.96166 6.62822 9.26059 8.25328 8.52568C9.85142 7.80356 11.0472 7.26842 12.5366 6.64791C13.6729 6.07454 14.5912 5.92579 16.0157 6.52909H16.0156Z" fill="black"/>
<path d="M39.6929 1.82262C37.5189 1.82262 35.7519 3.20315 35.7519 4.90258C35.7519 6.05789 36.5728 7.06899 37.7793 7.59582C37.7577 10.3145 37.7467 13.0291 37.763 15.7475C37.7683 16.4909 37.377 16.8308 36.6107 17.3064C36.1649 17.5867 35.8062 17.8332 35.5237 18.0709C35.2682 18.2833 34.8822 18.3725 34.5183 18.3044L31.9799 17.8457C32.3006 18.7124 32.0235 19.6594 31.2568 20.335L34.5183 20.9256C34.6378 20.9469 34.7519 20.9469 34.8664 20.9342C35.0184 20.981 35.2308 20.9173 35.4916 20.8026C36.2905 20.4414 38.9105 19.2988 39.4326 19.0481C40.5905 18.4958 41.1065 17.9903 41.0739 16.9114C40.9924 13.8741 40.9761 10.8283 41.0902 7.79102C42.5795 7.34922 43.6339 6.22351 43.6339 4.9108C43.6392 3.20279 41.8675 1.82227 39.693 1.82227L39.6929 1.82262ZM41.1007 6.59716C40.6984 6.80103 40.2146 6.9243 39.6929 6.9243C38.9372 6.9243 38.2634 6.67361 37.7902 6.27003C37.3664 5.90882 37.1108 5.42877 37.1108 4.90634C37.1108 3.78919 38.2688 2.88838 39.6929 2.88838C41.1223 2.88838 42.2749 3.79336 42.2749 4.90634C42.2802 5.61158 41.8128 6.23619 41.1007 6.59712V6.59716Z" fill="black"/>
<path d="M30.0615 19.5408L29.6213 19.9062L29.5182 19.9953L28.9692 20.4499C28.529 20.8194 27.8658 20.9768 27.2406 20.8621L26.599 20.7474L26.4902 20.7261L25.6641 20.5773C25.0282 20.4626 24.5224 20.0887 24.3378 19.6004L24.1638 19.1417L24.1312 19.0483L23.8866 18.3985C23.7126 17.9185 23.865 17.4002 24.2999 17.0348L24.7401 16.6694L24.8432 16.5844L25.3975 16.1212C25.7399 15.8323 26.2237 15.6753 26.7184 15.6753C26.8542 15.6753 26.9903 15.6839 27.1207 15.7094L27.7566 15.824L27.876 15.8454L28.6912 15.9941C29.327 16.1088 29.8381 16.4828 30.0174 16.9711L30.1915 17.4384L30.2241 17.5317L30.4686 18.1816C30.6536 18.6571 30.4963 19.1798 30.0614 19.5408L30.0615 19.5408Z" fill="black"/>
<path d="M48.3355 17.213C46.221 17.213 44.4871 18.5212 44.3945 20.161C41.3617 21.5033 38.3339 22.8501 35.3172 24.2179C34.4964 24.5918 33.9257 24.4941 33.018 24.2093C32.4474 24.0309 31.9689 23.9076 31.545 23.8353C31.159 23.7716 30.8545 23.5506 30.7461 23.2575L30.0288 21.3504C29.3929 21.8518 28.5285 22.1235 27.6424 22.1235C27.3925 22.1235 27.1313 22.1021 26.8867 22.0556L27.8323 24.5791C27.8922 24.7361 28.0227 24.8638 28.1857 24.9444C28.2619 25.0295 28.4029 25.1059 28.588 25.1907C29.3868 25.556 31.9579 26.7582 32.4963 26.9876C33.6869 27.4972 34.502 27.595 35.6868 27.0385C38.9699 25.4879 42.2966 23.9841 45.6775 22.5653C46.3786 23.0667 47.3135 23.3725 48.3354 23.3725C50.5094 23.3725 52.2763 21.992 52.2763 20.2925C52.2763 18.5935 50.5099 17.2129 48.3354 17.2129L48.3355 17.213ZM48.3355 22.3147C47.8354 22.3147 47.3679 22.2042 46.9713 22.0089C46.2376 21.6521 45.7481 21.0192 45.7481 20.2926C45.7481 19.9951 45.8296 19.7107 45.9816 19.4559C46.3892 18.7592 47.2916 18.2706 48.335 18.2706C49.7645 18.2706 50.9171 19.1756 50.9171 20.2885C50.9228 21.4101 49.7652 22.3148 48.3354 22.3148L48.3355 22.3147Z" fill="black"/>
<path d="M35.7737 30.4454C35.018 30.4454 34.3117 30.611 33.7081 30.9041C30.7184 29.5191 27.7182 28.143 24.7071 26.7835C23.8862 26.414 23.7126 25.9763 23.5711 25.216C23.4843 24.7487 23.3808 24.3665 23.2561 24.048C23.1419 23.7591 23.2288 23.4447 23.4896 23.2239L25.2508 21.7584C24.1255 21.5376 23.2178 20.8789 22.8644 20.0166L20.5815 21.924C20.4511 22.0301 20.3749 22.162 20.3643 22.298V22.3021C20.3043 22.3955 20.288 22.5315 20.288 22.6971C20.2827 23.4192 20.2228 25.7643 20.2391 26.2444C20.2717 27.3064 20.5652 27.9097 21.772 28.4321C25.1855 29.919 28.5718 31.4483 31.887 33.0668C31.8597 33.2197 31.8434 33.3726 31.8434 33.53C31.8434 35.229 33.6155 36.6099 35.7843 36.6099C37.9583 36.6099 39.7252 35.2294 39.7252 33.53C39.7249 31.8303 37.9474 30.4456 35.7733 30.4456L35.7737 30.4454ZM35.7737 35.5429C34.4095 35.5429 33.2894 34.7144 33.1973 33.6652C33.192 33.6183 33.192 33.5718 33.192 33.525C33.192 32.5777 34.0235 31.7832 35.1488 31.5667C35.3498 31.5284 35.5564 31.5071 35.774 31.5071C37.2035 31.5071 38.3561 32.4121 38.3561 33.5251C38.361 34.6424 37.2031 35.543 35.7737 35.543L35.7737 35.5429Z" fill="black"/>
<path d="M23.1089 16.2357L19.8422 15.641C19.6412 15.6069 19.4399 15.6282 19.2715 15.6961C19.1684 15.7174 19.0433 15.764 18.9072 15.8235C18.1026 16.1803 15.472 17.306 14.9447 17.5567C13.7867 18.1046 13.265 18.606 13.2813 19.6849C13.3355 22.7859 13.3192 25.8912 13.1672 28.9926C11.8193 29.4812 10.8843 30.5515 10.8843 31.7878C10.8843 33.4868 12.6507 34.8677 14.8252 34.8677C16.9992 34.8677 18.7662 33.4872 18.7662 31.7878C18.7662 30.5515 17.8259 29.4813 16.478 28.9926C16.5269 26.2824 16.5648 23.572 16.5705 20.8622C16.5758 20.1187 16.9728 19.7833 17.7391 19.3116C18.2119 19.0227 18.5925 18.7637 18.8807 18.513C19.1363 18.3006 19.5222 18.2114 19.8862 18.2751L22.3593 18.7211C22.0598 17.8549 22.337 16.9076 23.1089 16.2364L23.1089 16.2357ZM17.4178 31.7834C17.4178 32.9006 16.2599 33.8014 14.8358 33.8014C13.4063 33.8014 12.2537 32.8964 12.2537 31.7834C12.2537 31.1546 12.6234 30.5899 13.1993 30.2201C13.6452 29.9353 14.2158 29.7614 14.8353 29.7614C15.4548 29.7614 16.0259 29.9312 16.4713 30.2159C17.048 30.5899 17.4177 31.155 17.4177 31.7834L17.4178 31.7834Z" fill="black"/>
<path d="M26.5225 11.9924C26.452 11.8013 26.2726 11.6525 26.0603 11.5761H26.055C25.9951 11.542 25.9299 11.5082 25.854 11.4741C25.0605 11.1046 22.5004 9.88531 21.962 9.65182C20.7714 9.13771 19.9616 9.03163 18.7715 9.58396C15.2874 11.1983 11.7541 12.7658 8.16152 14.2314C7.54199 13.9129 6.80264 13.7301 6.00906 13.7301C3.83505 13.7301 2.06812 15.1106 2.06812 16.81C2.06812 18.5091 3.83456 19.89 6.00906 19.89C8.18307 19.89 9.95 18.5095 9.95 16.81C9.95 16.6826 9.93901 16.5593 9.9227 16.4361C12.9939 15.102 16.054 13.7642 19.1088 12.4046C19.935 12.0351 20.5057 12.1371 21.408 12.426C21.9734 12.6044 22.4461 12.7276 22.8648 12.8041C23.2397 12.8719 23.5279 13.093 23.6367 13.3774L24.3215 15.2167C25.1423 14.5752 26.3272 14.3076 27.4631 14.5073L26.5225 11.9924ZM6.01408 18.8317C4.58463 18.8317 3.43201 17.9267 3.43201 16.8137C3.43201 15.7008 4.58997 14.7958 6.01408 14.7958C6.30224 14.7958 6.5847 14.834 6.84555 14.9019C7.86733 15.1739 8.60142 15.9256 8.60142 16.8134C8.60142 16.8857 8.59611 16.9536 8.58512 17.0259C8.44938 18.0414 7.34601 18.8316 6.01412 18.8316L6.01408 18.8317Z" fill="black"/>
<path d="M34.073 10.3901C34.0351 9.32814 33.7307 8.72925 32.5185 8.21099C28.9635 6.69445 25.4307 5.12276 21.9842 3.45747C21.9896 3.4065 21.9896 3.35553 21.9896 3.30457C21.9896 1.60552 20.2174 0.224609 18.0486 0.224609C15.8746 0.224609 14.1077 1.60514 14.1077 3.30457C14.1077 5.00362 15.8741 6.38453 18.0486 6.38453C18.9453 6.38453 19.7719 6.15103 20.4293 5.75574C23.4731 7.14074 26.5226 8.52127 29.588 9.88048C30.4142 10.2458 30.5935 10.6835 30.746 11.4394C30.8385 11.8981 30.9363 12.2679 31.0611 12.5865C31.1752 12.8712 31.0827 13.177 30.8165 13.3937L29.1153 14.8124C30.2406 15.0332 31.1483 15.696 31.4959 16.5584L33.7841 14.6509C33.9092 14.5448 33.9797 14.4257 34.0014 14.2942V14.29C34.0393 14.1967 34.0556 14.0775 34.0556 13.9374C34.0506 13.2153 34.0889 10.8702 34.0726 10.3902L34.073 10.3901ZM19.0924 5.14825C18.7716 5.25877 18.4182 5.32249 18.0432 5.32249C16.6138 5.32249 15.4611 4.41751 15.4611 3.30453C15.4611 2.18738 16.6191 1.28657 18.0432 1.28657C19.299 1.28657 20.3477 1.98737 20.5764 2.91364C20.609 3.04106 20.6253 3.17262 20.6253 3.30448C20.6249 4.12442 19.9944 4.83376 19.0923 5.14819L19.0924 5.14825Z" fill="black"/>
<path d="M0.206845 40.2074C0.197723 40.2116 0.187841 40.2143 0.177958 40.2157C0.167695 40.2181 0.157054 40.2193 0.146031 40.2193C0.112583 40.2193 0.0859771 40.2122 0.066973 40.198C0.0475885 40.1832 0.0380859 40.1633 0.0380859 40.1387C0.0380859 40.1144 0.0475881 40.0948 0.066973 40.0806C0.0859771 40.0658 0.112583 40.0581 0.146031 40.0581C0.157054 40.0581 0.167696 40.0593 0.177958 40.0617C0.18784 40.0634 0.197722 40.0661 0.206845 40.07V40.102C0.197723 40.0966 0.187841 40.0931 0.177958 40.0913C0.168836 40.0889 0.158954 40.0877 0.149071 40.0877C0.130827 40.0877 0.116383 40.0925 0.106501 40.102C0.0962386 40.1109 0.0912976 40.123 0.0912976 40.1387C0.0912976 40.1547 0.0962387 40.1672 0.106501 40.1766C0.116383 40.1855 0.130827 40.1897 0.149071 40.1897C0.158953 40.1897 0.168835 40.1885 0.177958 40.1861C0.18784 40.1837 0.197722 40.1802 0.206845 40.1754V40.2074Z" fill="black"/>
<path d="M0.357295 40.1315C0.353124 40.1301 0.348953 40.1289 0.345162 40.128C0.340991 40.1274 0.336441 40.1268 0.331513 40.1268C0.31938 40.1268 0.309522 40.1301 0.302697 40.1363C0.296631 40.1419 0.293597 40.1505 0.293597 40.1624V40.2157H0.246582V40.0995H0.293597V40.1185C0.299664 40.1114 0.306488 40.1064 0.31483 40.1031C0.322792 40.0992 0.332271 40.0972 0.343646 40.0972H0.348196H0.357295L0.357295 40.1315Z" fill="black"/>
<path d="M0.52975 40.1576V40.1683H0.418767C0.419527 40.1772 0.423328 40.1837 0.42941 40.1884C0.436252 40.1926 0.446514 40.1944 0.459817 40.1944C0.468939 40.1944 0.478442 40.1932 0.488704 40.1908C0.499727 40.1884 0.510749 40.1849 0.522152 40.1801V40.2086C0.510749 40.2118 0.499727 40.2142 0.488704 40.2157C0.477301 40.2181 0.466279 40.2193 0.455257 40.2193C0.42789 40.2193 0.406606 40.2142 0.391402 40.2038C0.376959 40.1929 0.370117 40.1775 0.370117 40.1576C0.370117 40.1387 0.376959 40.1241 0.391402 40.1138C0.406606 40.1028 0.42675 40.0972 0.452216 40.0972C0.475401 40.0972 0.494026 40.1028 0.508468 40.1138C0.522531 40.125 0.529753 40.1395 0.529753 40.1576L0.52975 40.1576ZM0.481099 40.1446C0.481099 40.1375 0.478058 40.1321 0.471977 40.128C0.466656 40.1241 0.460195 40.1221 0.452213 40.1221C0.443091 40.1221 0.435489 40.1241 0.429407 40.128C0.423326 40.1321 0.419525 40.1375 0.418764 40.1446H0.481099Z" fill="black"/>
<path d="M0.631981 40.1635C0.621718 40.1635 0.614117 40.1653 0.609175 40.1683C0.603854 40.1707 0.601573 40.1742 0.601573 40.179C0.601573 40.1837 0.603474 40.1878 0.607655 40.1908C0.611455 40.1932 0.617157 40.1944 0.624379 40.1944C0.633501 40.1944 0.641103 40.192 0.647185 40.1872C0.653266 40.1819 0.656307 40.1754 0.656307 40.1683V40.1635L0.631981 40.1635ZM0.704957 40.1493V40.2157H0.656306V40.1979C0.650225 40.205 0.643003 40.2107 0.635021 40.2145C0.626659 40.2175 0.617158 40.2193 0.606134 40.2193C0.590931 40.2193 0.578008 40.2157 0.568126 40.2086C0.559004 40.2015 0.554443 40.1926 0.554443 40.1813C0.554443 40.1671 0.559765 40.157 0.571168 40.1505C0.58333 40.1443 0.602335 40.141 0.628941 40.141H0.656307V40.1387C0.656307 40.1324 0.653266 40.128 0.647185 40.1256C0.641104 40.1232 0.631982 40.1221 0.619819 40.1221C0.609556 40.1221 0.600055 40.1229 0.590932 40.1244C0.58257 40.1262 0.574588 40.1286 0.566606 40.1315V40.1031C0.576488 40.1007 0.586751 40.0992 0.597013 40.0984C0.608035 40.0978 0.618678 40.0972 0.62894 40.0972C0.655166 40.0972 0.67455 40.1016 0.686713 40.1102C0.698876 40.1182 0.704957 40.1312 0.704957 40.1493V40.1493Z" fill="black"/>
<path d="M0.80009 40.0664V40.0996H0.848821V40.1257H0.80009V40.1755C0.80009 40.1811 0.801613 40.1849 0.804659 40.1873C0.807704 40.1891 0.813034 40.1897 0.82141 40.1897H0.845776V40.2158H0.804659C0.785242 40.2158 0.771537 40.2131 0.763541 40.2075C0.756308 40.2012 0.752881 40.1906 0.752881 40.1755V40.1257H0.728516V40.0996H0.752881V40.0664L0.80009 40.0664Z" fill="black"/>
<path d="M1.02731 40.1576V40.1683H0.916326C0.917086 40.1772 0.920887 40.1837 0.926969 40.1884C0.93381 40.1926 0.944073 40.1944 0.957376 40.1944C0.966498 40.1944 0.976 40.1932 0.986263 40.1908C0.997285 40.1884 1.00831 40.1849 1.01971 40.1801V40.2086C1.00831 40.2118 0.997285 40.2142 0.986263 40.2157C0.97486 40.2181 0.963838 40.2193 0.952815 40.2193C0.925449 40.2193 0.904164 40.2142 0.888961 40.2038C0.874517 40.1929 0.867676 40.1775 0.867676 40.1576C0.867676 40.1387 0.874517 40.1241 0.888961 40.1138C0.904164 40.1028 0.924309 40.0972 0.949775 40.0972C0.97296 40.0972 0.991584 40.1028 1.00603 40.1138C1.02009 40.125 1.02731 40.1395 1.02731 40.1576L1.02731 40.1576ZM0.978658 40.1446C0.978658 40.1375 0.975617 40.1321 0.969536 40.128C0.964215 40.1241 0.957753 40.1221 0.949772 40.1221C0.94065 40.1221 0.933047 40.1241 0.926966 40.128C0.920885 40.1321 0.917084 40.1375 0.916323 40.1446H0.978658Z" fill="black"/>
<path d="M1.16426 40.1163V40.0547H1.2114V40.2159H1.16426V40.1993C1.15704 40.2058 1.14944 40.2108 1.14146 40.2147C1.13424 40.2177 1.12511 40.2194 1.11409 40.2194C1.09585 40.2194 1.08064 40.2141 1.06848 40.2028C1.05708 40.191 1.05176 40.1762 1.05176 40.1578C1.05176 40.1406 1.05708 40.1264 1.06848 40.1151C1.08064 40.1033 1.09585 40.0974 1.11409 40.0974C1.12511 40.0974 1.13424 40.0991 1.14146 40.1021C1.14944 40.1054 1.15704 40.1101 1.16426 40.1163V40.1163ZM1.13234 40.1922C1.14222 40.1922 1.14982 40.1895 1.15514 40.1839C1.16122 40.1777 1.16427 40.1691 1.16427 40.1578C1.16427 40.1468 1.16122 40.1385 1.15514 40.1329C1.14982 40.1267 1.14222 40.1234 1.13234 40.1234C1.12208 40.1234 1.11409 40.1267 1.10801 40.1329C1.10269 40.1385 1.10041 40.1468 1.10041 40.1578C1.10041 40.1691 1.10269 40.1777 1.10801 40.1839C1.11409 40.1895 1.12208 40.1922 1.13234 40.1922Z" fill="black"/>
<path d="M1.43086 40.1922C1.44075 40.1922 1.44835 40.1895 1.45367 40.1839C1.45975 40.1777 1.46279 40.1691 1.46279 40.1578C1.46279 40.1468 1.45975 40.1385 1.45367 40.1329C1.44835 40.1267 1.44075 40.1234 1.43086 40.1234C1.4206 40.1234 1.41262 40.1267 1.40654 40.1329C1.40122 40.1385 1.39894 40.1468 1.39894 40.1578C1.39894 40.1691 1.40122 40.1777 1.40654 40.1839C1.41262 40.1895 1.4206 40.1922 1.43086 40.1922ZM1.39894 40.1163C1.40578 40.1101 1.41338 40.1054 1.42174 40.1021C1.42973 40.0991 1.43885 40.0974 1.44911 40.0974C1.46735 40.0974 1.4818 40.1033 1.4932 40.1151C1.50536 40.1264 1.51144 40.1406 1.51144 40.1578C1.51144 40.1762 1.50536 40.191 1.4932 40.2028C1.4818 40.2141 1.46735 40.2194 1.44911 40.2194C1.43885 40.2194 1.42973 40.2177 1.42174 40.2147C1.41338 40.2108 1.40578 40.2058 1.39894 40.1993V40.2159H1.35181V40.0547H1.39894V40.1163Z" fill="black"/>
<path d="M1.52661 40.0996H1.57374L1.61479 40.179L1.64824 40.0996H1.69537L1.63304 40.2264C1.62696 40.2398 1.61973 40.249 1.61175 40.2537C1.60339 40.259 1.59237 40.262 1.57831 40.262H1.55094V40.2371H1.56614C1.57412 40.2371 1.57982 40.2359 1.58287 40.2335C1.58667 40.2318 1.58971 40.2282 1.59199 40.2229L1.59351 40.2205L1.52661 40.0996Z" fill="black"/>
<path d="M1.81812 40.0547H1.86481V40.2159H1.81812V40.0547Z" fill="black"/>
<path d="M2.06002 40.1576V40.1683H1.94904C1.9498 40.1772 1.9536 40.1837 1.95968 40.1884C1.96653 40.1926 1.97679 40.1944 1.99009 40.1944C1.99921 40.1944 2.00872 40.1932 2.01898 40.1908C2.03 40.1884 2.04102 40.1849 2.05243 40.1801V40.2086C2.04102 40.2118 2.03 40.2142 2.01898 40.2157C2.00757 40.2181 1.99655 40.2193 1.98553 40.2193C1.95816 40.2193 1.93688 40.2142 1.92168 40.2038C1.90723 40.1929 1.90039 40.1775 1.90039 40.1576C1.90039 40.1387 1.90723 40.1241 1.92168 40.1138C1.93688 40.1028 1.95702 40.0972 1.98249 40.0972C2.00567 40.0972 2.0243 40.1028 2.03874 40.1138C2.0528 40.125 2.06003 40.1395 2.06003 40.1576L2.06002 40.1576ZM2.01137 40.1446C2.01137 40.1375 2.00833 40.1321 2.00225 40.128C1.99693 40.1241 1.99047 40.1221 1.98249 40.1221C1.97336 40.1221 1.96576 40.1241 1.95968 40.128C1.9536 40.1321 1.9498 40.1375 1.94904 40.1446H2.01137Z" fill="black"/>
<path d="M2.16706 40.1232C2.15566 40.1232 2.1473 40.1265 2.14121 40.1327C2.13589 40.1384 2.13361 40.1467 2.13361 40.1576C2.13361 40.1689 2.13589 40.1775 2.14121 40.1837C2.1473 40.1893 2.15566 40.192 2.16706 40.192C2.17694 40.192 2.18454 40.1893 2.18987 40.1837C2.19595 40.1775 2.19899 40.1689 2.19899 40.1576C2.19899 40.1467 2.19595 40.1384 2.18987 40.1327C2.18454 40.1265 2.17694 40.1232 2.16706 40.1232ZM2.16706 40.0972C2.19215 40.0972 2.21191 40.1028 2.22635 40.1138C2.24042 40.1241 2.24764 40.1387 2.24764 40.1576C2.24764 40.1766 2.24042 40.1917 2.22635 40.2027C2.21191 40.2139 2.19215 40.2193 2.16706 40.2193C2.14045 40.2193 2.12031 40.2139 2.10625 40.2027C2.0918 40.1917 2.08496 40.1766 2.08496 40.1576C2.08496 40.1387 2.0918 40.1241 2.10625 40.1138C2.12031 40.1028 2.14045 40.0972 2.16706 40.0972Z" fill="black"/>
<path d="M2.27466 40.1396H2.35855V40.1698H2.27466V40.1396Z" fill="black"/>
<path d="M2.49703 40.1955C2.48981 40.2027 2.48221 40.208 2.47422 40.211C2.467 40.2142 2.45788 40.2157 2.44686 40.2157C2.42861 40.2157 2.41341 40.2104 2.40125 40.1991C2.38984 40.1881 2.38452 40.1739 2.38452 40.1564C2.38452 40.1392 2.38984 40.125 2.40125 40.1138C2.41341 40.1028 2.42861 40.0972 2.44686 40.0972C2.45788 40.0972 2.467 40.0989 2.47422 40.1019C2.4822 40.1052 2.48981 40.1102 2.49703 40.1173V40.0995H2.54416V40.2038C2.54416 40.2228 2.53656 40.237 2.52135 40.2465C2.50615 40.2566 2.48411 40.2619 2.45598 40.2619C2.44686 40.2619 2.43773 40.261 2.42861 40.2595C2.42025 40.2587 2.41189 40.2572 2.40277 40.2548V40.2264C2.41075 40.2293 2.41873 40.2317 2.42709 40.2335C2.43507 40.2358 2.44306 40.237 2.45142 40.237C2.46662 40.237 2.47764 40.2341 2.48487 40.2287C2.49285 40.2231 2.49703 40.2151 2.49703 40.2038V40.1955ZM2.4651 40.1232C2.45484 40.1232 2.44686 40.1265 2.44078 40.1327C2.43545 40.1384 2.43317 40.1464 2.43317 40.1564C2.43317 40.1668 2.43545 40.1748 2.44078 40.1801C2.44686 40.1858 2.45484 40.1884 2.4651 40.1884C2.47498 40.1884 2.48259 40.1858 2.48791 40.1801C2.49399 40.1748 2.49703 40.1668 2.49703 40.1564C2.49703 40.1464 2.49399 40.1384 2.48791 40.1327C2.48259 40.1265 2.47498 40.1232 2.4651 40.1232Z" fill="black"/>
<path d="M2.70031 40.1315C2.69614 40.1301 2.69197 40.1289 2.68818 40.128C2.68401 40.1274 2.67946 40.1268 2.67453 40.1268C2.6624 40.1268 2.65254 40.1301 2.64571 40.1363C2.63965 40.1419 2.63661 40.1505 2.63661 40.1624V40.2157H2.5896V40.0995H2.63661V40.1185C2.64268 40.1114 2.64951 40.1064 2.65785 40.1031C2.66581 40.0992 2.67529 40.0972 2.68666 40.0972H2.69121H2.70031L2.70031 40.1315Z" fill="black"/>
<path d="M2.79043 40.1635C2.78017 40.1635 2.77256 40.1653 2.76762 40.1683C2.7623 40.1707 2.76002 40.1742 2.76002 40.179C2.76002 40.1837 2.76192 40.1878 2.7661 40.1908C2.7699 40.1932 2.7756 40.1944 2.78283 40.1944C2.79195 40.1944 2.79955 40.192 2.80563 40.1872C2.81171 40.1819 2.81475 40.1754 2.81475 40.1683V40.1635L2.79043 40.1635ZM2.8634 40.1493V40.2157H2.81475V40.1979C2.80867 40.205 2.80145 40.2107 2.79347 40.2145C2.78511 40.2175 2.7756 40.2193 2.76458 40.2193C2.74938 40.2193 2.73646 40.2157 2.72657 40.2086C2.71745 40.2015 2.71289 40.1926 2.71289 40.1813C2.71289 40.1671 2.71821 40.157 2.72961 40.1505C2.74178 40.1443 2.76078 40.141 2.78739 40.141H2.81475V40.1387C2.81475 40.1324 2.81171 40.128 2.80563 40.1256C2.79955 40.1232 2.79043 40.1221 2.77827 40.1221C2.768 40.1221 2.7585 40.1229 2.74938 40.1244C2.74102 40.1262 2.73304 40.1286 2.72505 40.1315V40.1031C2.73494 40.1007 2.7452 40.0992 2.75546 40.0984C2.76648 40.0978 2.77713 40.0972 2.78739 40.0972C2.81361 40.0972 2.833 40.1016 2.84516 40.1102C2.85732 40.1182 2.8634 40.1312 2.8634 40.1493V40.1493Z" fill="black"/>
<path d="M2.95411 40.1991V40.2596H2.90698V40.0995H2.95411V40.1161C2.96096 40.1099 2.96856 40.1052 2.97692 40.1019C2.9849 40.0989 2.99402 40.0972 3.00429 40.0972C3.02253 40.0972 3.03697 40.1031 3.04838 40.1149C3.06054 40.1262 3.06662 40.1404 3.06662 40.1576C3.06662 40.176 3.06054 40.1908 3.04838 40.2027C3.03697 40.2139 3.02253 40.2193 3.00429 40.2193C2.99402 40.2193 2.9849 40.2175 2.97692 40.2145C2.96856 40.2107 2.96096 40.2056 2.95411 40.1991V40.1991ZM2.98604 40.1232C2.97578 40.1232 2.9678 40.1265 2.96171 40.1327C2.95639 40.1384 2.95411 40.1467 2.95411 40.1576C2.95411 40.1689 2.95639 40.1775 2.96171 40.1837C2.9678 40.1893 2.97578 40.192 2.98604 40.192C2.99592 40.192 3.00352 40.1893 3.00885 40.1837C3.01493 40.1775 3.01797 40.1689 3.01797 40.1576C3.01797 40.1467 3.01493 40.1384 3.00885 40.1327C3.00352 40.1265 2.99592 40.1232 2.98604 40.1232Z" fill="black"/>
<path d="M3.25056 40.1448V40.2159H3.20343V40.1625C3.20343 40.1525 3.20267 40.1454 3.20191 40.1412C3.20191 40.1374 3.20077 40.1347 3.19887 40.1329C3.19773 40.1305 3.19507 40.1288 3.19126 40.127C3.18822 40.1255 3.18442 40.1246 3.18062 40.1246C3.1715 40.1246 3.1639 40.1279 3.15782 40.1341C3.15173 40.1397 3.14869 40.148 3.14869 40.159V40.2159H3.10156V40.0547H3.14869V40.1163C3.15554 40.1101 3.16314 40.1054 3.1715 40.1021C3.17948 40.0991 3.1886 40.0974 3.19887 40.0974C3.21597 40.0974 3.22851 40.1018 3.23687 40.1104C3.246 40.1184 3.25056 40.13 3.25056 40.1448L3.25056 40.1448Z" fill="black"/>
<path d="M3.29956 40.1753H3.34777V40.2163H3.29956V40.1753Z" fill="black"/>
<path d="M3.5189 40.1031V40.1339C3.51281 40.1301 3.50596 40.1274 3.49911 40.1256C3.49302 40.1241 3.48616 40.1232 3.47931 40.1232C3.46599 40.1232 3.45533 40.1265 3.44733 40.1327C3.4401 40.1384 3.43667 40.1467 3.43667 40.1576C3.43667 40.1689 3.4401 40.1775 3.44733 40.1837C3.45533 40.1893 3.46599 40.192 3.47931 40.192C3.48616 40.192 3.4934 40.1914 3.50063 40.1896C3.50748 40.1881 3.51357 40.1858 3.5189 40.1825V40.2121C3.51167 40.2145 3.50406 40.216 3.49606 40.2169C3.48883 40.2184 3.48121 40.2193 3.47322 40.2193C3.44657 40.2193 3.42601 40.2139 3.41078 40.2027C3.39555 40.1917 3.38794 40.1766 3.38794 40.1576C3.38794 40.1387 3.39555 40.1241 3.41078 40.1138C3.42601 40.1028 3.44657 40.0972 3.47322 40.0972C3.48121 40.0972 3.48883 40.0978 3.49606 40.0984C3.50406 40.0992 3.51167 40.1007 3.5189 40.1031L3.5189 40.1031Z" fill="black"/>
<path d="M3.63068 40.1232C3.61928 40.1232 3.61092 40.1265 3.60484 40.1327C3.59952 40.1384 3.59724 40.1467 3.59724 40.1576C3.59724 40.1689 3.59952 40.1775 3.60484 40.1837C3.61092 40.1893 3.61928 40.192 3.63068 40.192C3.64056 40.192 3.64817 40.1893 3.65349 40.1837C3.65957 40.1775 3.66261 40.1689 3.66261 40.1576C3.66261 40.1467 3.65957 40.1384 3.65349 40.1327C3.64817 40.1265 3.64057 40.1232 3.63068 40.1232ZM3.63068 40.0972C3.65577 40.0972 3.67553 40.1028 3.68998 40.1138C3.70404 40.1241 3.71126 40.1387 3.71126 40.1576C3.71126 40.1766 3.70404 40.1917 3.68998 40.2027C3.67553 40.2139 3.65577 40.2193 3.63068 40.2193C3.60408 40.2193 3.58393 40.2139 3.56987 40.2027C3.55543 40.1917 3.54858 40.1766 3.54858 40.1576C3.54858 40.1387 3.55543 40.1241 3.56987 40.1138C3.58393 40.1028 3.60408 40.0972 3.63068 40.0972Z" fill="black"/>
<path d="M3.88411 40.1185C3.89017 40.1114 3.897 40.1064 3.90534 40.1031C3.9133 40.0992 3.9224 40.0972 3.93264 40.0972C3.9497 40.0972 3.96221 40.1016 3.97055 40.1102C3.97965 40.1182 3.9842 40.1298 3.9842 40.1446V40.2157H3.93719V40.1552V40.1529V40.1481C3.93719 40.1404 3.93567 40.1345 3.93264 40.1304C3.9296 40.1265 3.9243 40.1244 3.91747 40.1244C3.90837 40.1244 3.90117 40.1277 3.89624 40.1339C3.89207 40.1395 3.88941 40.1478 3.88866 40.1588V40.2157H3.84164V40.1552C3.84164 40.1428 3.84012 40.1345 3.83709 40.1304C3.83406 40.1265 3.82875 40.1244 3.82192 40.1244C3.81282 40.1244 3.80562 40.1277 3.80069 40.1339C3.79538 40.1395 3.79311 40.1478 3.79311 40.1588V40.2157H3.74609V40.0995H3.79311V40.1161C3.79918 40.1099 3.80562 40.1052 3.81282 40.1019C3.82079 40.0989 3.82951 40.0972 3.83861 40.0972C3.84846 40.0972 3.85756 40.0992 3.86591 40.1031C3.87387 40.1072 3.87993 40.1123 3.8841 40.1185L3.88411 40.1185Z" fill="black"/>
<path d="M0.144788 40.2671V40.292H0.1189C0.112809 40.292 0.10824 40.2929 0.105195 40.2944C0.10215 40.2961 0.100627 40.2991 0.100627 40.3038V40.3121H0.141744V40.3382H0.100627V40.4283H0.0534182V40.3382H0.0290527V40.3121H0.0534182V40.3038C0.0534182 40.2914 0.0579867 40.2822 0.0671233 40.2766C0.0762604 40.2703 0.0903465 40.2671 0.109763 40.2671L0.144788 40.2671Z" fill="black"/>
<path d="M0.27624 40.3439C0.272069 40.3425 0.267899 40.3413 0.264107 40.3404C0.259937 40.3398 0.255387 40.3392 0.250458 40.3392C0.238325 40.3392 0.228468 40.3425 0.221642 40.3487C0.215576 40.3543 0.212543 40.3629 0.212543 40.3748V40.4281H0.165527V40.3119H0.212543V40.3309C0.218609 40.3238 0.225434 40.3188 0.233775 40.3155C0.241737 40.3116 0.251216 40.3096 0.262591 40.3096H0.267141H0.276241L0.27624 40.3439Z" fill="black"/>
<path d="M0.370673 40.3356C0.35927 40.3356 0.350909 40.3389 0.344828 40.3451C0.339506 40.3508 0.337226 40.3591 0.337226 40.37C0.337226 40.3813 0.339506 40.3899 0.344828 40.3961C0.350909 40.4017 0.359271 40.4044 0.370673 40.4044C0.380555 40.4044 0.388157 40.4017 0.393479 40.3961C0.39956 40.3899 0.402601 40.3813 0.402601 40.37C0.402601 40.3591 0.39956 40.3508 0.393479 40.3451C0.388158 40.3389 0.380556 40.3356 0.370673 40.3356ZM0.370673 40.3096C0.395758 40.3096 0.415523 40.3152 0.429967 40.3262C0.44403 40.3365 0.451252 40.3511 0.451252 40.37C0.451252 40.389 0.44403 40.4041 0.429967 40.4151C0.415523 40.4263 0.395759 40.4317 0.370673 40.4317C0.344067 40.4317 0.323922 40.4263 0.309859 40.4151C0.295416 40.4041 0.288574 40.389 0.288574 40.37C0.288574 40.3511 0.295416 40.3365 0.309859 40.3262C0.323922 40.3152 0.344067 40.3096 0.370673 40.3096Z" fill="black"/>
<path d="M0.624098 40.3309C0.630164 40.3238 0.636989 40.3188 0.64533 40.3155C0.653292 40.3116 0.662392 40.3096 0.672629 40.3096C0.689691 40.3096 0.702203 40.314 0.710544 40.3226C0.719643 40.3306 0.724193 40.3422 0.724193 40.357V40.4281H0.677177V40.3676V40.3653V40.3605C0.677177 40.3528 0.675661 40.3469 0.672628 40.3428C0.669594 40.3389 0.664286 40.3368 0.657461 40.3368C0.648362 40.3368 0.641158 40.3401 0.636229 40.3463C0.632058 40.3519 0.629404 40.3602 0.628646 40.3712V40.4281H0.581631V40.3676C0.581631 40.3552 0.580114 40.3469 0.577081 40.3428C0.574048 40.3389 0.56874 40.3368 0.561915 40.3368C0.552815 40.3368 0.545611 40.3401 0.540682 40.3463C0.535374 40.3519 0.533099 40.3602 0.533099 40.3712V40.4281H0.486084V40.3119H0.533099V40.3285C0.539166 40.3223 0.545612 40.3176 0.552815 40.3143C0.560777 40.3114 0.569498 40.3096 0.578596 40.3096C0.588454 40.3096 0.597554 40.3116 0.605895 40.3155C0.613858 40.3196 0.619924 40.3247 0.624095 40.3309L0.624098 40.3309Z" fill="black"/>
<path d="M0.915569 40.2788V40.312H0.9643V40.3381H0.915569V40.3879C0.915569 40.3935 0.917092 40.3973 0.920137 40.3997C0.923183 40.4015 0.928513 40.4021 0.936889 40.4021H0.961254V40.4282H0.920137C0.900721 40.4282 0.887016 40.4255 0.87902 40.4199C0.871786 40.4136 0.86836 40.403 0.86836 40.3879V40.3381H0.843994V40.312H0.86836V40.2788L0.915569 40.2788Z" fill="black"/>
<path d="M1.14289 40.3572V40.4283H1.09576V40.375C1.09576 40.3649 1.095 40.3578 1.09424 40.3536C1.09424 40.3498 1.0931 40.3471 1.0912 40.3453C1.09006 40.3429 1.0874 40.3412 1.0836 40.3394C1.08056 40.3379 1.07676 40.337 1.07296 40.337C1.06383 40.337 1.05623 40.3403 1.05015 40.3465C1.04407 40.3521 1.04103 40.3604 1.04103 40.3714V40.4283H0.993896V40.2671H1.04103V40.3287C1.04787 40.3225 1.05547 40.3178 1.06383 40.3145C1.07182 40.3115 1.08094 40.3098 1.0912 40.3098C1.1083 40.3098 1.12085 40.3142 1.12921 40.3228C1.13833 40.3308 1.14289 40.3424 1.14289 40.3572L1.14289 40.3572Z" fill="black"/>
<path d="M1.33615 40.37V40.3807H1.22516C1.22592 40.3896 1.22972 40.3961 1.23581 40.4008C1.24265 40.405 1.25291 40.4068 1.26621 40.4068C1.27534 40.4068 1.28484 40.4056 1.2951 40.4032C1.30612 40.4008 1.31715 40.3973 1.32855 40.3925V40.421C1.31715 40.4242 1.30612 40.4266 1.2951 40.4281C1.2837 40.4305 1.27268 40.4317 1.26165 40.4317C1.23429 40.4317 1.213 40.4266 1.1978 40.4162C1.18335 40.4053 1.17651 40.3899 1.17651 40.37C1.17651 40.3511 1.18336 40.3365 1.1978 40.3262C1.213 40.3152 1.23315 40.3096 1.25861 40.3096C1.2818 40.3096 1.30042 40.3152 1.31486 40.3262C1.32893 40.3374 1.33615 40.3519 1.33615 40.37L1.33615 40.37ZM1.2875 40.357C1.2875 40.3499 1.28445 40.3445 1.27837 40.3404C1.27305 40.3365 1.26659 40.3345 1.25861 40.3345C1.24949 40.3345 1.24189 40.3365 1.2358 40.3404C1.22972 40.3445 1.22592 40.3499 1.22516 40.357H1.2875Z" fill="black"/>
<path d="M1.46777 40.2739H1.52555L1.597 40.3794V40.2739H1.64565V40.428H1.5894L1.51643 40.3213V40.428H1.46777L1.46777 40.2739Z" fill="black"/>
<path d="M1.7652 40.3356C1.7538 40.3356 1.74544 40.3389 1.73936 40.3451C1.73404 40.3508 1.73176 40.3591 1.73176 40.37C1.73176 40.3813 1.73404 40.3899 1.73936 40.3961C1.74544 40.4017 1.7538 40.4044 1.7652 40.4044C1.77509 40.4044 1.78269 40.4017 1.78801 40.3961C1.79409 40.3899 1.79713 40.3813 1.79713 40.37C1.79713 40.3591 1.79409 40.3508 1.78801 40.3451C1.78269 40.3389 1.77509 40.3356 1.7652 40.3356ZM1.7652 40.3096C1.79029 40.3096 1.81005 40.3152 1.8245 40.3262C1.83856 40.3365 1.84578 40.3511 1.84578 40.37C1.84578 40.389 1.83856 40.4041 1.8245 40.4151C1.81005 40.4263 1.79029 40.4317 1.7652 40.4317C1.7386 40.4317 1.71845 40.4263 1.70439 40.4151C1.68995 40.4041 1.68311 40.389 1.68311 40.37C1.68311 40.3511 1.68995 40.3365 1.70439 40.3262C1.71845 40.3152 1.7386 40.3096 1.7652 40.3096Z" fill="black"/>
<path d="M1.87891 40.3831V40.312H1.92604V40.3239V40.3476V40.3665V40.3867C1.9268 40.3908 1.92832 40.3935 1.9306 40.395C1.9325 40.3982 1.93516 40.4006 1.9382 40.4021C1.94124 40.403 1.94466 40.4033 1.94884 40.4033C1.95873 40.4033 1.96633 40.4006 1.97165 40.395C1.97773 40.3888 1.98077 40.3802 1.98077 40.3689V40.312H2.0279V40.4282H1.98077V40.4116C1.97355 40.4181 1.96595 40.4231 1.95797 40.427C1.9496 40.4299 1.94124 40.4317 1.93212 40.4317C1.91464 40.4317 1.90171 40.4279 1.89259 40.4199C1.88347 40.4113 1.87891 40.3991 1.87891 40.3831L1.87891 40.3831Z" fill="black"/>
<path d="M2.22297 40.357V40.4281H2.17584V40.3736C2.17584 40.3641 2.17508 40.3576 2.17432 40.3534C2.17432 40.3496 2.17318 40.3469 2.17128 40.3451C2.17014 40.3428 2.16748 40.341 2.16368 40.3392C2.16064 40.3377 2.15684 40.3368 2.15303 40.3368C2.14391 40.3368 2.13631 40.3401 2.13023 40.3463C2.12415 40.3519 2.12111 40.3602 2.12111 40.3712V40.4281H2.07397V40.3119H2.12111V40.3285C2.12795 40.3223 2.13555 40.3176 2.14391 40.3143C2.15189 40.3113 2.16102 40.3096 2.17128 40.3096C2.18838 40.3096 2.20092 40.314 2.20929 40.3226C2.21841 40.3306 2.22297 40.3422 2.22297 40.357L2.22297 40.357Z" fill="black"/>
<path d="M2.36328 40.2739H2.44842C2.47351 40.2739 2.49289 40.2784 2.50619 40.287C2.52026 40.2959 2.52748 40.308 2.52748 40.3237C2.52748 40.3403 2.52026 40.353 2.50619 40.3616C2.49289 40.3705 2.47351 40.3747 2.44842 40.3747H2.41497V40.428H2.36328V40.2739ZM2.41497 40.3024V40.345H2.44386C2.45298 40.345 2.45982 40.3436 2.46515 40.3403C2.47123 40.3364 2.47427 40.3308 2.47427 40.3237C2.47427 40.3166 2.47123 40.3116 2.46515 40.3083C2.45982 40.3044 2.45298 40.3024 2.44386 40.3024L2.41497 40.3024Z" fill="black"/>
<path d="M2.67199 40.3439C2.66782 40.3425 2.66365 40.3413 2.65986 40.3404C2.65569 40.3398 2.65114 40.3392 2.64621 40.3392C2.63408 40.3392 2.62422 40.3425 2.61739 40.3487C2.61133 40.3543 2.60829 40.3629 2.60829 40.3748V40.4281H2.56128V40.3119H2.60829V40.3309C2.61436 40.3238 2.62119 40.3188 2.62953 40.3155C2.63749 40.3116 2.64697 40.3096 2.65834 40.3096H2.66289H2.67199L2.67199 40.3439Z" fill="black"/>
<path d="M2.76667 40.3356C2.75527 40.3356 2.74691 40.3389 2.74082 40.3451C2.7355 40.3508 2.73322 40.3591 2.73322 40.37C2.73322 40.3813 2.7355 40.3899 2.74082 40.3961C2.74691 40.4017 2.75527 40.4044 2.76667 40.4044C2.77655 40.4044 2.78415 40.4017 2.78947 40.3961C2.79556 40.3899 2.7986 40.3813 2.7986 40.37C2.7986 40.3591 2.79556 40.3508 2.78947 40.3451C2.78415 40.3389 2.77655 40.3356 2.76667 40.3356ZM2.76667 40.3096C2.79175 40.3096 2.81152 40.3152 2.82596 40.3262C2.84003 40.3365 2.84725 40.3511 2.84725 40.37C2.84725 40.389 2.84003 40.4041 2.82596 40.4151C2.81152 40.4263 2.79176 40.4317 2.76667 40.4317C2.74006 40.4317 2.71992 40.4263 2.70586 40.4151C2.69141 40.4041 2.68457 40.389 2.68457 40.37C2.68457 40.3511 2.69141 40.3365 2.70586 40.3262C2.71992 40.3152 2.74006 40.3096 2.76667 40.3096Z" fill="black"/>
<path d="M2.88213 40.3121H2.92942V40.4259C2.92942 40.4416 2.92408 40.4535 2.91416 40.4615C2.90501 40.4701 2.89166 40.4745 2.8745 40.4745H2.8501V40.4496H2.85772C2.86688 40.4496 2.87298 40.4478 2.87603 40.4449C2.87984 40.4416 2.88213 40.4354 2.88213 40.4259L2.88213 40.3121ZM2.88213 40.2671H2.92942V40.2979H2.88213V40.2671Z" fill="black"/>
<path d="M3.12399 40.37V40.3807H3.01301C3.01377 40.3896 3.01757 40.3961 3.02365 40.4008C3.03049 40.405 3.04075 40.4068 3.05406 40.4068C3.06318 40.4068 3.07268 40.4056 3.08294 40.4032C3.09396 40.4008 3.10499 40.3973 3.11639 40.3925V40.421C3.10499 40.4242 3.09396 40.4266 3.08294 40.4281C3.07154 40.4305 3.06052 40.4317 3.04949 40.4317C3.02213 40.4317 3.00084 40.4266 2.98564 40.4162C2.9712 40.4053 2.96436 40.3899 2.96436 40.37C2.96436 40.3511 2.9712 40.3365 2.98564 40.3262C3.00084 40.3152 3.02099 40.3096 3.04645 40.3096C3.06964 40.3096 3.08826 40.3152 3.10271 40.3262C3.11677 40.3374 3.12399 40.3519 3.12399 40.37L3.12399 40.37ZM3.07534 40.357C3.07534 40.3499 3.0723 40.3445 3.06622 40.3404C3.06089 40.3365 3.05443 40.3345 3.04645 40.3345C3.03733 40.3345 3.02973 40.3365 3.02365 40.3404C3.01756 40.3445 3.01376 40.3499 3.013 40.357H3.07534Z" fill="black"/>
<path d="M3.27989 40.3155V40.3463C3.2738 40.3425 3.26695 40.3398 3.26009 40.338C3.254 40.3365 3.24715 40.3356 3.2403 40.3356C3.22697 40.3356 3.21631 40.3389 3.20832 40.3451C3.20108 40.3508 3.19766 40.3591 3.19766 40.37C3.19766 40.3813 3.20108 40.3899 3.20832 40.3961C3.21631 40.4017 3.22697 40.4044 3.2403 40.4044C3.24715 40.4044 3.25438 40.4038 3.26162 40.402C3.26847 40.4005 3.27456 40.3982 3.27989 40.3949V40.4245C3.27266 40.4269 3.26504 40.4284 3.25705 40.4293C3.24981 40.4308 3.2422 40.4317 3.2342 40.4317C3.20755 40.4317 3.187 40.4263 3.17177 40.4151C3.15654 40.4041 3.14893 40.389 3.14893 40.37C3.14893 40.3511 3.15654 40.3365 3.17177 40.3262C3.187 40.3152 3.20756 40.3096 3.2342 40.3096C3.2422 40.3096 3.24981 40.3102 3.25705 40.3108C3.26504 40.3116 3.27266 40.3131 3.27989 40.3155L3.27989 40.3155Z" fill="black"/>
<path d="M3.37211 40.2788V40.312H3.42084V40.3381H3.37211V40.3879C3.37211 40.3935 3.37363 40.3973 3.37668 40.3997C3.37973 40.4015 3.38506 40.4021 3.39343 40.4021H3.4178V40.4282H3.37668C3.35726 40.4282 3.34356 40.4255 3.33556 40.4199C3.32833 40.4136 3.3249 40.403 3.3249 40.3879V40.3381H3.30054V40.312H3.3249V40.2788L3.37211 40.2788Z" fill="black"/>
</g>
<defs>
<clipPath id="clip0_127_1286">
<rect width="52.3411" height="40.5078" fill="white"/>
</clipPath>
</defs>
</svg>
